<svg width="1801" height="270" viewBox="0 0 1801 270" fill="none" xmlns="http://www.w3.org/2000/svg">
<path d="M354.911 97.0088C363.734 92.4398 372.754 90.1553 381.971 90.1553C391.188 90.1553 399.104 91.6126 405.722 94.5273C412.418 97.3633 418.286 101.46 423.328 106.816C434.278 118.712 439.753 133.758 439.753 151.955C439.753 171.885 433.805 187.956 421.91 200.166C410.488 211.904 396.269 217.772 379.253 217.772C364.285 217.772 351.957 213.873 342.268 206.074C331.396 197.251 325.961 185.08 325.961 169.562V40.1719H354.911V97.0088ZM354.911 169.207C354.911 183.072 363.537 190.004 380.789 190.004C389.218 190.004 396.308 186.301 402.059 178.896C407.888 171.334 410.803 161.92 410.803 150.655C410.803 139.312 407.73 130.764 401.586 125.014C396.072 119.893 388.667 117.333 379.371 117.333C373.778 117.333 367.594 119.224 360.819 123.005C358.692 124.187 356.723 125.486 354.911 126.904V169.207Z" fill="black"/>
<path d="M354.911 97.0088C363.734 92.4398 372.754 90.1553 381.971 90.1553C391.188 90.1553 399.104 91.6126 405.722 94.5273C412.418 97.3633 418.286 101.46 423.328 106.816C434.278 118.712 439.753 133.758 439.753 151.955C439.753 171.885 433.805 187.956 421.91 200.166C410.488 211.904 396.269 217.772 379.253 217.772C364.285 217.772 351.957 213.873 342.268 206.074C331.396 197.251 325.961 185.08 325.961 169.562V40.1719H354.911V97.0088ZM354.911 169.207C354.911 183.072 363.537 190.004 380.789 190.004C389.218 190.004 396.308 186.301 402.059 178.896C407.888 171.334 410.803 161.92 410.803 150.655C410.803 139.312 407.73 130.764 401.586 125.014C396.072 119.893 388.667 117.333 379.371 117.333C373.778 117.333 367.594 119.224 360.819 123.005C358.692 124.187 356.723 125.486 354.911 126.904V169.207Z" fill="url(#paint0_linear_42_126)"/>
<path d="M354.911 97.0088C363.734 92.4398 372.754 90.1553 381.971 90.1553C391.188 90.1553 399.104 91.6126 405.722 94.5273C412.418 97.3633 418.286 101.46 423.328 106.816C434.278 118.712 439.753 133.758 439.753 151.955C439.753 171.885 433.805 187.956 421.91 200.166C410.488 211.904 396.269 217.772 379.253 217.772C364.285 217.772 351.957 213.873 342.268 206.074C331.396 197.251 325.961 185.08 325.961 169.562V40.1719H354.911V97.0088ZM354.911 169.207C354.911 183.072 363.537 190.004 380.789 190.004C389.218 190.004 396.308 186.301 402.059 178.896C407.888 171.334 410.803 161.92 410.803 150.655C410.803 139.312 407.73 130.764 401.586 125.014C396.072 119.893 388.667 117.333 379.371 117.333C373.778 117.333 367.594 119.224 360.819 123.005C358.692 124.187 356.723 125.486 354.911 126.904V169.207Z" fill="white"/>
<path d="M530.342 208.674C519.156 214.74 509.033 217.772 499.974 217.772C490.915 217.772 483.155 216.945 476.696 215.291C470.236 213.558 464.761 211.037 460.271 207.729C451.133 201.033 446.564 191.343 446.564 178.66C446.564 167.316 452.157 157.863 463.343 150.301C475.475 142.108 491.939 138.012 512.736 138.012L517.462 138.13C518.408 138.209 519.471 138.287 520.653 138.366C521.834 138.366 522.898 138.445 523.843 138.603C523.213 125.998 517.777 118.633 507.537 116.506C504.149 115.797 500.525 115.442 496.665 115.442C492.884 115.442 489.142 115.797 485.44 116.506C481.816 117.136 478.271 118.003 474.805 119.105C467.164 121.548 461.689 124.344 458.38 127.495L458.026 127.259L454.481 101.145C468.424 93.8184 483.667 90.1553 500.21 90.1553C525.891 90.1553 542.316 99.4115 549.485 117.924C551.769 123.832 552.912 130.489 552.912 137.894V180.669C552.912 189.807 556.141 196.03 562.601 199.339L541.213 218.954C536.723 216.591 533.099 213.164 530.342 208.674ZM523.961 159.872C521.834 159.478 519.629 159.281 517.344 159.281H512.618C495.208 159.281 484.14 163.141 479.414 170.861C477.996 173.146 477.287 175.549 477.287 178.069C477.287 180.59 477.72 182.835 478.586 184.805C479.532 186.695 481.068 188.271 483.195 189.531C487.291 191.895 493.357 193.076 501.392 193.076C509.506 193.076 517.068 191.146 524.08 187.286C524.001 186.42 523.961 185.514 523.961 184.568V159.872Z" fill="black"/>
<path d="M530.342 208.674C519.156 214.74 509.033 217.772 499.974 217.772C490.915 217.772 483.155 216.945 476.696 215.291C470.236 213.558 464.761 211.037 460.271 207.729C451.133 201.033 446.564 191.343 446.564 178.66C446.564 167.316 452.157 157.863 463.343 150.301C475.475 142.108 491.939 138.012 512.736 138.012L517.462 138.13C518.408 138.209 519.471 138.287 520.653 138.366C521.834 138.366 522.898 138.445 523.843 138.603C523.213 125.998 517.777 118.633 507.537 116.506C504.149 115.797 500.525 115.442 496.665 115.442C492.884 115.442 489.142 115.797 485.44 116.506C481.816 117.136 478.271 118.003 474.805 119.105C467.164 121.548 461.689 124.344 458.38 127.495L458.026 127.259L454.481 101.145C468.424 93.8184 483.667 90.1553 500.21 90.1553C525.891 90.1553 542.316 99.4115 549.485 117.924C551.769 123.832 552.912 130.489 552.912 137.894V180.669C552.912 189.807 556.141 196.03 562.601 199.339L541.213 218.954C536.723 216.591 533.099 213.164 530.342 208.674ZM523.961 159.872C521.834 159.478 519.629 159.281 517.344 159.281H512.618C495.208 159.281 484.14 163.141 479.414 170.861C477.996 173.146 477.287 175.549 477.287 178.069C477.287 180.59 477.72 182.835 478.586 184.805C479.532 186.695 481.068 188.271 483.195 189.531C487.291 191.895 493.357 193.076 501.392 193.076C509.506 193.076 517.068 191.146 524.08 187.286C524.001 186.42 523.961 185.514 523.961 184.568V159.872Z" fill="url(#paint1_linear_42_126)"/>
<path d="M530.342 208.674C519.156 214.74 509.033 217.772 499.974 217.772C490.915 217.772 483.155 216.945 476.696 215.291C470.236 213.558 464.761 211.037 460.271 207.729C451.133 201.033 446.564 191.343 446.564 178.66C446.564 167.316 452.157 157.863 463.343 150.301C475.475 142.108 491.939 138.012 512.736 138.012L517.462 138.13C518.408 138.209 519.471 138.287 520.653 138.366C521.834 138.366 522.898 138.445 523.843 138.603C523.213 125.998 517.777 118.633 507.537 116.506C504.149 115.797 500.525 115.442 496.665 115.442C492.884 115.442 489.142 115.797 485.44 116.506C481.816 117.136 478.271 118.003 474.805 119.105C467.164 121.548 461.689 124.344 458.38 127.495L458.026 127.259L454.481 101.145C468.424 93.8184 483.667 90.1553 500.21 90.1553C525.891 90.1553 542.316 99.4115 549.485 117.924C551.769 123.832 552.912 130.489 552.912 137.894V180.669C552.912 189.807 556.141 196.03 562.601 199.339L541.213 218.954C536.723 216.591 533.099 213.164 530.342 208.674ZM523.961 159.872C521.834 159.478 519.629 159.281 517.344 159.281H512.618C495.208 159.281 484.14 163.141 479.414 170.861C477.996 173.146 477.287 175.549 477.287 178.069C477.287 180.59 477.72 182.835 478.586 184.805C479.532 186.695 481.068 188.271 483.195 189.531C487.291 191.895 493.357 193.076 501.392 193.076C509.506 193.076 517.068 191.146 524.08 187.286C524.001 186.42 523.961 185.514 523.961 184.568V159.872Z" fill="white"/>
<path d="M665.867 204.538C657.044 213.361 643.219 217.772 624.391 217.772C606.115 217.772 591.187 212.219 579.607 201.111C567.87 189.846 562.001 174.879 562.001 156.209C562.001 137.224 567.791 121.626 579.371 109.416C591.66 96.5755 608.085 90.1553 628.645 90.1553C643.219 90.1553 655.429 93.3457 665.276 99.7266L660.55 129.977L659.722 129.858C655.941 125.289 651.963 122.296 647.788 120.878C641.013 118.515 634.238 117.333 627.464 117.333C620.689 117.333 615.371 118.2 611.511 119.933C607.651 121.666 604.343 124.068 601.586 127.141C596.071 133.443 593.314 141.793 593.314 152.191C593.314 170.625 599.695 182.678 612.457 188.35C616.868 190.24 621.516 191.186 626.4 191.186C631.363 191.186 635.656 190.752 639.28 189.886C642.983 189.019 646.33 187.838 649.324 186.341C655.705 183.19 660.038 179.527 662.322 175.352L663.149 175.706L665.867 204.538Z" fill="black"/>
<path d="M665.867 204.538C657.044 213.361 643.219 217.772 624.391 217.772C606.115 217.772 591.187 212.219 579.607 201.111C567.87 189.846 562.001 174.879 562.001 156.209C562.001 137.224 567.791 121.626 579.371 109.416C591.66 96.5755 608.085 90.1553 628.645 90.1553C643.219 90.1553 655.429 93.3457 665.276 99.7266L660.55 129.977L659.722 129.858C655.941 125.289 651.963 122.296 647.788 120.878C641.013 118.515 634.238 117.333 627.464 117.333C620.689 117.333 615.371 118.2 611.511 119.933C607.651 121.666 604.343 124.068 601.586 127.141C596.071 133.443 593.314 141.793 593.314 152.191C593.314 170.625 599.695 182.678 612.457 188.35C616.868 190.24 621.516 191.186 626.4 191.186C631.363 191.186 635.656 190.752 639.28 189.886C642.983 189.019 646.33 187.838 649.324 186.341C655.705 183.19 660.038 179.527 662.322 175.352L663.149 175.706L665.867 204.538Z" fill="url(#paint2_linear_42_126)"/>
<path d="M665.867 204.538C657.044 213.361 643.219 217.772 624.391 217.772C606.115 217.772 591.187 212.219 579.607 201.111C567.87 189.846 562.001 174.879 562.001 156.209C562.001 137.224 567.791 121.626 579.371 109.416C591.66 96.5755 608.085 90.1553 628.645 90.1553C643.219 90.1553 655.429 93.3457 665.276 99.7266L660.55 129.977L659.722 129.858C655.941 125.289 651.963 122.296 647.788 120.878C641.013 118.515 634.238 117.333 627.464 117.333C620.689 117.333 615.371 118.2 611.511 119.933C607.651 121.666 604.343 124.068 601.586 127.141C596.071 133.443 593.314 141.793 593.314 152.191C593.314 170.625 599.695 182.678 612.457 188.35C616.868 190.24 621.516 191.186 626.4 191.186C631.363 191.186 635.656 190.752 639.28 189.886C642.983 189.019 646.33 187.838 649.324 186.341C655.705 183.19 660.038 179.527 662.322 175.352L663.149 175.706L665.867 204.538Z" fill="white"/>
<path d="M705.556 200.402C705.556 207.177 705.832 212.376 706.383 216H676.606V47.0254H705.556V150.537L759.557 92.5186H794.652L748.095 141.557L774.682 177.833C780.433 186.971 784.765 193.667 787.68 197.921L795.479 208.91C797.842 211.982 799.811 214.346 801.387 216H782.717C775.785 216 769.837 216.591 764.874 217.772L728.007 163.89L705.556 187.759V200.402Z" fill="black"/>
<path d="M705.556 200.402C705.556 207.177 705.832 212.376 706.383 216H676.606V47.0254H705.556V150.537L759.557 92.5186H794.652L748.095 141.557L774.682 177.833C780.433 186.971 784.765 193.667 787.68 197.921L795.479 208.91C797.842 211.982 799.811 214.346 801.387 216H782.717C775.785 216 769.837 216.591 764.874 217.772L728.007 163.89L705.556 187.759V200.402Z" fill="url(#paint3_linear_42_126)"/>
<path d="M705.556 200.402C705.556 207.177 705.832 212.376 706.383 216H676.606V47.0254H705.556V150.537L759.557 92.5186H794.652L748.095 141.557L774.682 177.833C780.433 186.971 784.765 193.667 787.68 197.921L795.479 208.91C797.842 211.982 799.811 214.346 801.387 216H782.717C775.785 216 769.837 216.591 764.874 217.772L728.007 163.89L705.556 187.759V200.402Z" fill="white"/>
<path d="M828.522 97.0088C837.345 92.4398 846.365 90.1553 855.582 90.1553C864.799 90.1553 872.716 91.6126 879.333 94.5273C886.029 97.3633 891.897 101.46 896.939 106.816C907.889 118.712 913.364 133.758 913.364 151.955C913.364 171.885 907.416 187.956 895.521 200.166C884.099 211.904 869.88 217.772 852.864 217.772C837.897 217.772 825.568 213.873 815.879 206.074C805.008 197.251 799.572 185.08 799.572 169.562V40.1719H828.522V97.0088ZM828.522 169.207C828.522 183.072 837.148 190.004 854.4 190.004C862.829 190.004 869.919 186.301 875.67 178.896C881.499 171.334 884.414 161.92 884.414 150.655C884.414 139.312 881.341 130.764 875.197 125.014C869.683 119.893 862.278 117.333 852.982 117.333C847.389 117.333 841.205 119.224 834.43 123.005C832.303 124.187 830.334 125.486 828.522 126.904V169.207Z" fill="black"/>
<path d="M828.522 97.0088C837.345 92.4398 846.365 90.1553 855.582 90.1553C864.799 90.1553 872.716 91.6126 879.333 94.5273C886.029 97.3633 891.897 101.46 896.939 106.816C907.889 118.712 913.364 133.758 913.364 151.955C913.364 171.885 907.416 187.956 895.521 200.166C884.099 211.904 869.88 217.772 852.864 217.772C837.897 217.772 825.568 213.873 815.879 206.074C805.008 197.251 799.572 185.08 799.572 169.562V40.1719H828.522V97.0088ZM828.522 169.207C828.522 183.072 837.148 190.004 854.4 190.004C862.829 190.004 869.919 186.301 875.67 178.896C881.499 171.334 884.414 161.92 884.414 150.655C884.414 139.312 881.341 130.764 875.197 125.014C869.683 119.893 862.278 117.333 852.982 117.333C847.389 117.333 841.205 119.224 834.43 123.005C832.303 124.187 830.334 125.486 828.522 126.904V169.207Z" fill="url(#paint4_linear_42_126)"/>
<path d="M828.522 97.0088C837.345 92.4398 846.365 90.1553 855.582 90.1553C864.799 90.1553 872.716 91.6126 879.333 94.5273C886.029 97.3633 891.897 101.46 896.939 106.816C907.889 118.712 913.364 133.758 913.364 151.955C913.364 171.885 907.416 187.956 895.521 200.166C884.099 211.904 869.88 217.772 852.864 217.772C837.897 217.772 825.568 213.873 815.879 206.074C805.008 197.251 799.572 185.08 799.572 169.562V40.1719H828.522V97.0088ZM828.522 169.207C828.522 183.072 837.148 190.004 854.4 190.004C862.829 190.004 869.919 186.301 875.67 178.896C881.499 171.334 884.414 161.92 884.414 150.655C884.414 139.312 881.341 130.764 875.197 125.014C869.683 119.893 862.278 117.333 852.982 117.333C847.389 117.333 841.205 119.224 834.43 123.005C832.303 124.187 830.334 125.486 828.522 126.904V169.207Z" fill="white"/>
<path d="M915.86 154.909C915.86 146.244 917.317 137.972 920.232 130.095C923.225 122.138 927.479 115.206 932.993 109.298C945.046 96.5361 960.683 90.1553 979.904 90.1553C999.047 90.1553 1014.25 96.1816 1025.52 108.234C1036.31 119.736 1041.7 134.664 1041.7 153.019C1041.7 171.373 1036.15 186.577 1025.04 198.63C1013.31 211.392 997.747 217.772 978.368 217.772C958.359 217.772 942.683 211.51 931.339 198.984C921.019 187.562 915.86 172.87 915.86 154.909ZM944.573 154.2C944.573 159.163 945.401 163.968 947.055 168.616C948.709 173.264 951.072 177.242 954.145 180.551C960.683 187.719 969.27 191.304 979.904 191.304C989.751 191.304 997.511 187.798 1003.18 180.787C1008.7 174.012 1011.45 165.189 1011.45 154.318C1011.45 143.29 1008.62 134.388 1002.95 127.613C996.881 120.366 988.57 116.742 978.014 116.742C967.3 116.742 958.911 120.602 952.845 128.322C947.331 135.412 944.573 144.038 944.573 154.2Z" fill="black"/>
<path d="M915.86 154.909C915.86 146.244 917.317 137.972 920.232 130.095C923.225 122.138 927.479 115.206 932.993 109.298C945.046 96.5361 960.683 90.1553 979.904 90.1553C999.047 90.1553 1014.25 96.1816 1025.52 108.234C1036.31 119.736 1041.7 134.664 1041.7 153.019C1041.7 171.373 1036.15 186.577 1025.04 198.63C1013.31 211.392 997.747 217.772 978.368 217.772C958.359 217.772 942.683 211.51 931.339 198.984C921.019 187.562 915.86 172.87 915.86 154.909ZM944.573 154.2C944.573 159.163 945.401 163.968 947.055 168.616C948.709 173.264 951.072 177.242 954.145 180.551C960.683 187.719 969.27 191.304 979.904 191.304C989.751 191.304 997.511 187.798 1003.18 180.787C1008.7 174.012 1011.45 165.189 1011.45 154.318C1011.45 143.29 1008.62 134.388 1002.95 127.613C996.881 120.366 988.57 116.742 978.014 116.742C967.3 116.742 958.911 120.602 952.845 128.322C947.331 135.412 944.573 144.038 944.573 154.2Z" fill="url(#paint5_linear_42_126)"/>
<path d="M915.86 154.909C915.86 146.244 917.317 137.972 920.232 130.095C923.225 122.138 927.479 115.206 932.993 109.298C945.046 96.5361 960.683 90.1553 979.904 90.1553C999.047 90.1553 1014.25 96.1816 1025.52 108.234C1036.31 119.736 1041.7 134.664 1041.7 153.019C1041.7 171.373 1036.15 186.577 1025.04 198.63C1013.31 211.392 997.747 217.772 978.368 217.772C958.359 217.772 942.683 211.51 931.339 198.984C921.019 187.562 915.86 172.87 915.86 154.909ZM944.573 154.2C944.573 159.163 945.401 163.968 947.055 168.616C948.709 173.264 951.072 177.242 954.145 180.551C960.683 187.719 969.27 191.304 979.904 191.304C989.751 191.304 997.511 187.798 1003.18 180.787C1008.7 174.012 1011.45 165.189 1011.45 154.318C1011.45 143.29 1008.62 134.388 1002.95 127.613C996.881 120.366 988.57 116.742 978.014 116.742C967.3 116.742 958.911 120.602 952.845 128.322C947.331 135.412 944.573 144.038 944.573 154.2Z" fill="white"/>
<path d="M1074.49 200.875C1074.49 207.807 1074.8 212.849 1075.43 216H1045.77V92.5186H1074.49V103.035C1084.89 94.4486 1095.99 90.1553 1107.81 90.1553C1120.73 90.1553 1131.05 94.5667 1138.77 103.39C1146.49 112.134 1150.35 123.674 1150.35 138.012V185.041C1150.35 198.354 1150.55 206.35 1150.94 209.028C1151.33 211.707 1151.85 213.44 1152.48 214.228C1153.18 215.015 1153.78 215.724 1154.25 216.354L1154.01 216.827C1147.63 216.276 1142.98 216 1140.07 216H1131.8C1129.28 216 1125.89 216.118 1121.64 216.354V151.955C1121.64 128.874 1114.62 117.333 1100.6 117.333C1090.2 117.333 1081.5 122.69 1074.49 133.403V200.875Z" fill="black"/>
<path d="M1074.49 200.875C1074.49 207.807 1074.8 212.849 1075.43 216H1045.77V92.5186H1074.49V103.035C1084.89 94.4486 1095.99 90.1553 1107.81 90.1553C1120.73 90.1553 1131.05 94.5667 1138.77 103.39C1146.49 112.134 1150.35 123.674 1150.35 138.012V185.041C1150.35 198.354 1150.55 206.35 1150.94 209.028C1151.33 211.707 1151.85 213.44 1152.48 214.228C1153.18 215.015 1153.78 215.724 1154.25 216.354L1154.01 216.827C1147.63 216.276 1142.98 216 1140.07 216H1131.8C1129.28 216 1125.89 216.118 1121.64 216.354V151.955C1121.64 128.874 1114.62 117.333 1100.6 117.333C1090.2 117.333 1081.5 122.69 1074.49 133.403V200.875Z" fill="url(#paint6_linear_42_126)"/>
<path d="M1074.49 200.875C1074.49 207.807 1074.8 212.849 1075.43 216H1045.77V92.5186H1074.49V103.035C1084.89 94.4486 1095.99 90.1553 1107.81 90.1553C1120.73 90.1553 1131.05 94.5667 1138.77 103.39C1146.49 112.134 1150.35 123.674 1150.35 138.012V185.041C1150.35 198.354 1150.55 206.35 1150.94 209.028C1151.33 211.707 1151.85 213.44 1152.48 214.228C1153.18 215.015 1153.78 215.724 1154.25 216.354L1154.01 216.827C1147.63 216.276 1142.98 216 1140.07 216H1131.8C1129.28 216 1125.89 216.118 1121.64 216.354V151.955C1121.64 128.874 1114.62 117.333 1100.6 117.333C1090.2 117.333 1081.5 122.69 1074.49 133.403V200.875Z" fill="white"/>
<path d="M1154.86 155.264C1154.86 146.047 1156.44 137.5 1159.59 129.622C1162.74 121.744 1167.19 114.852 1172.94 108.943C1185.23 96.418 1201.3 90.1553 1221.15 90.1553C1237.93 90.1553 1251.4 95.709 1261.57 106.816C1271.57 117.53 1276.57 131.001 1276.57 147.229C1276.57 153.452 1276.1 157.706 1275.15 159.99C1267.28 162.196 1251.25 163.299 1227.06 163.299H1185.47C1187.52 171.728 1192.28 178.306 1199.77 183.032C1207.25 187.68 1216.98 190.004 1228.95 190.004C1241.48 190.004 1252.23 187.759 1261.21 183.269C1263.57 182.087 1265.35 180.984 1266.53 179.96C1266.37 183.269 1266.17 186.656 1265.94 190.122L1264.64 208.556C1258.65 212.652 1248.96 215.488 1235.57 217.063C1231.63 217.536 1227.85 217.772 1224.23 217.772C1204.22 217.772 1187.67 211.943 1174.6 200.284C1161.44 188.547 1154.86 173.54 1154.86 155.264ZM1245.14 140.375C1241.91 123.438 1232.69 114.97 1217.49 114.97C1205.52 114.97 1196.42 120.13 1190.19 130.449C1188.3 133.6 1186.85 137.066 1185.82 140.848C1187.71 140.926 1190.04 141.005 1192.79 141.084H1201.54C1204.45 141.163 1207.25 141.202 1209.93 141.202H1216.66C1220.68 141.202 1224.62 141.163 1228.48 141.084L1238.17 140.729C1240.77 140.651 1243.09 140.533 1245.14 140.375Z" fill="black"/>
<path d="M1154.86 155.264C1154.86 146.047 1156.44 137.5 1159.59 129.622C1162.74 121.744 1167.19 114.852 1172.94 108.943C1185.23 96.418 1201.3 90.1553 1221.15 90.1553C1237.93 90.1553 1251.4 95.709 1261.57 106.816C1271.57 117.53 1276.57 131.001 1276.57 147.229C1276.57 153.452 1276.1 157.706 1275.15 159.99C1267.28 162.196 1251.25 163.299 1227.06 163.299H1185.47C1187.52 171.728 1192.28 178.306 1199.77 183.032C1207.25 187.68 1216.98 190.004 1228.95 190.004C1241.48 190.004 1252.23 187.759 1261.21 183.269C1263.57 182.087 1265.35 180.984 1266.53 179.96C1266.37 183.269 1266.17 186.656 1265.94 190.122L1264.64 208.556C1258.65 212.652 1248.96 215.488 1235.57 217.063C1231.63 217.536 1227.85 217.772 1224.23 217.772C1204.22 217.772 1187.67 211.943 1174.6 200.284C1161.44 188.547 1154.86 173.54 1154.86 155.264ZM1245.14 140.375C1241.91 123.438 1232.69 114.97 1217.49 114.97C1205.52 114.97 1196.42 120.13 1190.19 130.449C1188.3 133.6 1186.85 137.066 1185.82 140.848C1187.71 140.926 1190.04 141.005 1192.79 141.084H1201.54C1204.45 141.163 1207.25 141.202 1209.93 141.202H1216.66C1220.68 141.202 1224.62 141.163 1228.48 141.084L1238.17 140.729C1240.77 140.651 1243.09 140.533 1245.14 140.375Z" fill="url(#paint7_linear_42_126)"/>
<path d="M1154.86 155.264C1154.86 146.047 1156.44 137.5 1159.59 129.622C1162.74 121.744 1167.19 114.852 1172.94 108.943C1185.23 96.418 1201.3 90.1553 1221.15 90.1553C1237.93 90.1553 1251.4 95.709 1261.57 106.816C1271.57 117.53 1276.57 131.001 1276.57 147.229C1276.57 153.452 1276.1 157.706 1275.15 159.99C1267.28 162.196 1251.25 163.299 1227.06 163.299H1185.47C1187.52 171.728 1192.28 178.306 1199.77 183.032C1207.25 187.68 1216.98 190.004 1228.95 190.004C1241.48 190.004 1252.23 187.759 1261.21 183.269C1263.57 182.087 1265.35 180.984 1266.53 179.96C1266.37 183.269 1266.17 186.656 1265.94 190.122L1264.64 208.556C1258.65 212.652 1248.96 215.488 1235.57 217.063C1231.63 217.536 1227.85 217.772 1224.23 217.772C1204.22 217.772 1187.67 211.943 1174.6 200.284C1161.44 188.547 1154.86 173.54 1154.86 155.264ZM1245.14 140.375C1241.91 123.438 1232.69 114.97 1217.49 114.97C1205.52 114.97 1196.42 120.13 1190.19 130.449C1188.3 133.6 1186.85 137.066 1185.82 140.848C1187.71 140.926 1190.04 141.005 1192.79 141.084H1201.54C1204.45 141.163 1207.25 141.202 1209.93 141.202H1216.66C1220.68 141.202 1224.62 141.163 1228.48 141.084L1238.17 140.729C1240.77 140.651 1243.09 140.533 1245.14 140.375Z" fill="white"/>
<path d="M1283.32 216C1284.03 211.195 1284.38 206.941 1284.38 203.238C1284.38 199.536 1284.35 197.015 1284.27 195.676C1284.27 194.258 1284.23 192.879 1284.15 191.54C1284.07 190.201 1283.99 188.94 1283.91 187.759L1283.56 184.805H1317.83C1317.59 187.798 1317.47 190.24 1317.47 192.131L1317.23 197.094C1317.23 198.59 1317.23 201.426 1317.23 205.602C1317.23 209.698 1317.43 213.164 1317.83 216H1283.32Z" fill="black"/>
<path d="M1283.32 216C1284.03 211.195 1284.38 206.941 1284.38 203.238C1284.38 199.536 1284.35 197.015 1284.27 195.676C1284.27 194.258 1284.23 192.879 1284.15 191.54C1284.07 190.201 1283.99 188.94 1283.91 187.759L1283.56 184.805H1317.83C1317.59 187.798 1317.47 190.24 1317.47 192.131L1317.23 197.094C1317.23 198.59 1317.23 201.426 1317.23 205.602C1317.23 209.698 1317.43 213.164 1317.83 216H1283.32Z" fill="url(#paint8_linear_42_126)"/>
<path d="M1283.32 216C1284.03 211.195 1284.38 206.941 1284.38 203.238C1284.38 199.536 1284.35 197.015 1284.27 195.676C1284.27 194.258 1284.23 192.879 1284.15 191.54C1284.07 190.201 1283.99 188.94 1283.91 187.759L1283.56 184.805H1317.83C1317.59 187.798 1317.47 190.24 1317.47 192.131L1317.23 197.094C1317.23 198.59 1317.23 201.426 1317.23 205.602C1317.23 209.698 1317.43 213.164 1317.83 216H1283.32Z" fill="white"/>
<path d="M1363.1 97.0088C1371.92 92.4398 1380.94 90.1553 1390.16 90.1553C1399.37 90.1553 1407.29 91.6126 1413.91 94.5273C1420.6 97.3633 1426.47 101.46 1431.51 106.816C1442.46 118.712 1447.94 133.758 1447.94 151.955C1447.94 171.885 1441.99 187.956 1430.1 200.166C1418.67 211.904 1404.45 217.772 1387.44 217.772C1372.47 217.772 1360.14 213.873 1350.45 206.074C1339.58 197.251 1334.15 185.08 1334.15 169.562V40.1719H1363.1V97.0088ZM1363.1 169.207C1363.1 183.072 1371.72 190.004 1388.97 190.004C1397.4 190.004 1404.49 186.301 1410.24 178.896C1416.07 171.334 1418.99 161.92 1418.99 150.655C1418.99 139.312 1415.92 130.764 1409.77 125.014C1404.26 119.893 1396.85 117.333 1387.56 117.333C1381.96 117.333 1375.78 119.224 1369 123.005C1366.88 124.187 1364.91 125.486 1363.1 126.904V169.207Z" fill="black"/>
<path d="M1363.1 97.0088C1371.92 92.4398 1380.94 90.1553 1390.16 90.1553C1399.37 90.1553 1407.29 91.6126 1413.91 94.5273C1420.6 97.3633 1426.47 101.46 1431.51 106.816C1442.46 118.712 1447.94 133.758 1447.94 151.955C1447.94 171.885 1441.99 187.956 1430.1 200.166C1418.67 211.904 1404.45 217.772 1387.44 217.772C1372.47 217.772 1360.14 213.873 1350.45 206.074C1339.58 197.251 1334.15 185.08 1334.15 169.562V40.1719H1363.1V97.0088ZM1363.1 169.207C1363.1 183.072 1371.72 190.004 1388.97 190.004C1397.4 190.004 1404.49 186.301 1410.24 178.896C1416.07 171.334 1418.99 161.92 1418.99 150.655C1418.99 139.312 1415.92 130.764 1409.77 125.014C1404.26 119.893 1396.85 117.333 1387.56 117.333C1381.96 117.333 1375.78 119.224 1369 123.005C1366.88 124.187 1364.91 125.486 1363.1 126.904V169.207Z" fill="url(#paint9_linear_42_126)"/>
<path d="M1363.1 97.0088C1371.92 92.4398 1380.94 90.1553 1390.16 90.1553C1399.37 90.1553 1407.29 91.6126 1413.91 94.5273C1420.6 97.3633 1426.47 101.46 1431.51 106.816C1442.46 118.712 1447.94 133.758 1447.94 151.955C1447.94 171.885 1441.99 187.956 1430.1 200.166C1418.67 211.904 1404.45 217.772 1387.44 217.772C1372.47 217.772 1360.14 213.873 1350.45 206.074C1339.58 197.251 1334.15 185.08 1334.15 169.562V40.1719H1363.1V97.0088ZM1363.1 169.207C1363.1 183.072 1371.72 190.004 1388.97 190.004C1397.4 190.004 1404.49 186.301 1410.24 178.896C1416.07 171.334 1418.99 161.92 1418.99 150.655C1418.99 139.312 1415.92 130.764 1409.77 125.014C1404.26 119.893 1396.85 117.333 1387.56 117.333C1381.96 117.333 1375.78 119.224 1369 123.005C1366.88 124.187 1364.91 125.486 1363.1 126.904V169.207Z" fill="white"/>
<path d="M1533.39 205.247C1523.3 213.597 1512.31 217.772 1500.42 217.772C1487.66 217.772 1477.65 213.479 1470.4 204.893C1463.47 196.542 1460.01 185.08 1460.01 170.507V123.596C1460.01 107.84 1459.65 98.8206 1458.94 96.5361C1458.31 94.1729 1457.84 92.6761 1457.52 92.0459C1461.15 92.361 1464.93 92.5186 1468.87 92.5186H1478.68C1481.27 92.5186 1484.7 92.4004 1488.96 92.1641V160.581C1488.96 176.809 1493.37 186.223 1502.19 188.822C1504.87 189.61 1507.78 190.004 1510.93 190.004C1520.23 190.004 1527.71 186.617 1533.39 179.842V92.5186H1562.69V200.875C1562.69 207.807 1563 212.849 1563.64 216H1533.39V205.247Z" fill="black"/>
<path d="M1533.39 205.247C1523.3 213.597 1512.31 217.772 1500.42 217.772C1487.66 217.772 1477.65 213.479 1470.4 204.893C1463.47 196.542 1460.01 185.08 1460.01 170.507V123.596C1460.01 107.84 1459.65 98.8206 1458.94 96.5361C1458.31 94.1729 1457.84 92.6761 1457.52 92.0459C1461.15 92.361 1464.93 92.5186 1468.87 92.5186H1478.68C1481.27 92.5186 1484.7 92.4004 1488.96 92.1641V160.581C1488.96 176.809 1493.37 186.223 1502.19 188.822C1504.87 189.61 1507.78 190.004 1510.93 190.004C1520.23 190.004 1527.71 186.617 1533.39 179.842V92.5186H1562.69V200.875C1562.69 207.807 1563 212.849 1563.64 216H1533.39V205.247Z" fill="url(#paint10_linear_42_126)"/>
<path d="M1533.39 205.247C1523.3 213.597 1512.31 217.772 1500.42 217.772C1487.66 217.772 1477.65 213.479 1470.4 204.893C1463.47 196.542 1460.01 185.08 1460.01 170.507V123.596C1460.01 107.84 1459.65 98.8206 1458.94 96.5361C1458.31 94.1729 1457.84 92.6761 1457.52 92.0459C1461.15 92.361 1464.93 92.5186 1468.87 92.5186H1478.68C1481.27 92.5186 1484.7 92.4004 1488.96 92.1641V160.581C1488.96 176.809 1493.37 186.223 1502.19 188.822C1504.87 189.61 1507.78 190.004 1510.93 190.004C1520.23 190.004 1527.71 186.617 1533.39 179.842V92.5186H1562.69V200.875C1562.69 207.807 1563 212.849 1563.64 216H1533.39V205.247Z" fill="white"/>
<path d="M1613.28 202.766C1613.28 209.54 1613.44 213.952 1613.75 216H1583.74V92.5186H1613.28V202.766Z" fill="black"/>
<path d="M1613.28 202.766C1613.28 209.54 1613.44 213.952 1613.75 216H1583.74V92.5186H1613.28V202.766Z" fill="url(#paint11_linear_42_126)"/>
<path d="M1613.28 202.766C1613.28 209.54 1613.44 213.952 1613.75 216H1583.74V92.5186H1613.28V202.766Z" fill="white"/>
<path d="M1664.45 202.766C1664.45 209.54 1664.61 213.952 1664.93 216H1634.91V39.9355H1664.45V202.766Z" fill="black"/>
<path d="M1664.45 202.766C1664.45 209.54 1664.61 213.952 1664.93 216H1634.91V39.9355H1664.45V202.766Z" fill="url(#paint12_linear_42_126)"/>
<path d="M1664.45 202.766C1664.45 209.54 1664.61 213.952 1664.93 216H1634.91V39.9355H1664.45V202.766Z" fill="white"/>
<path d="M1767.98 209.383C1757.97 214.976 1747.97 217.772 1737.96 217.772C1727.96 217.772 1719.22 216.197 1711.73 213.046C1704.25 209.895 1697.87 205.562 1692.59 200.048C1681.72 188.704 1676.28 173.973 1676.28 155.854C1676.28 137.106 1682.59 121.508 1695.19 109.062C1707.87 96.4574 1724.1 90.1553 1743.87 90.1553C1749.94 90.1553 1755.89 90.943 1761.72 92.5186V39.9355H1790.67V166.253C1790.67 176.73 1791.14 183.584 1792.08 186.813C1793.11 190.043 1794.21 192.407 1795.39 193.903C1796.65 195.4 1798.23 196.818 1800.12 198.157L1777.9 217.772C1773.81 215.567 1770.5 212.77 1767.98 209.383ZM1743.52 190.595C1750.14 190.595 1756.2 189.334 1761.72 186.813V121.351C1756.2 119.066 1750.21 117.924 1743.75 117.924C1737.3 117.924 1731.74 118.79 1727.09 120.523C1722.52 122.257 1718.59 124.659 1715.28 127.731C1708.34 134.191 1704.88 142.581 1704.88 152.9C1704.88 164.165 1708.03 173.146 1714.33 179.842C1721.11 187.01 1730.84 190.595 1743.52 190.595Z" fill="black"/>
<path d="M1767.98 209.383C1757.97 214.976 1747.97 217.772 1737.96 217.772C1727.96 217.772 1719.22 216.197 1711.73 213.046C1704.25 209.895 1697.87 205.562 1692.59 200.048C1681.72 188.704 1676.28 173.973 1676.28 155.854C1676.28 137.106 1682.59 121.508 1695.19 109.062C1707.87 96.4574 1724.1 90.1553 1743.87 90.1553C1749.94 90.1553 1755.89 90.943 1761.72 92.5186V39.9355H1790.67V166.253C1790.67 176.73 1791.14 183.584 1792.08 186.813C1793.11 190.043 1794.21 192.407 1795.39 193.903C1796.65 195.4 1798.23 196.818 1800.12 198.157L1777.9 217.772C1773.81 215.567 1770.5 212.77 1767.98 209.383ZM1743.52 190.595C1750.14 190.595 1756.2 189.334 1761.72 186.813V121.351C1756.2 119.066 1750.21 117.924 1743.75 117.924C1737.3 117.924 1731.74 118.79 1727.09 120.523C1722.52 122.257 1718.59 124.659 1715.28 127.731C1708.34 134.191 1704.88 142.581 1704.88 152.9C1704.88 164.165 1708.03 173.146 1714.33 179.842C1721.11 187.01 1730.84 190.595 1743.52 190.595Z" fill="url(#paint13_linear_42_126)"/>
<path d="M1767.98 209.383C1757.97 214.976 1747.97 217.772 1737.96 217.772C1727.96 217.772 1719.22 216.197 1711.73 213.046C1704.25 209.895 1697.87 205.562 1692.59 200.048C1681.72 188.704 1676.28 173.973 1676.28 155.854C1676.28 137.106 1682.59 121.508 1695.19 109.062C1707.87 96.4574 1724.1 90.1553 1743.87 90.1553C1749.94 90.1553 1755.89 90.943 1761.72 92.5186V39.9355H1790.67V166.253C1790.67 176.73 1791.14 183.584 1792.08 186.813C1793.11 190.043 1794.21 192.407 1795.39 193.903C1796.65 195.4 1798.23 196.818 1800.12 198.157L1777.9 217.772C1773.81 215.567 1770.5 212.77 1767.98 209.383ZM1743.52 190.595C1750.14 190.595 1756.2 189.334 1761.72 186.813V121.351C1756.2 119.066 1750.21 117.924 1743.75 117.924C1737.3 117.924 1731.74 118.79 1727.09 120.523C1722.52 122.257 1718.59 124.659 1715.28 127.731C1708.34 134.191 1704.88 142.581 1704.88 152.9C1704.88 164.165 1708.03 173.146 1714.33 179.842C1721.11 187.01 1730.84 190.595 1743.52 190.595Z" fill="white"/>
<path fill-rule="evenodd" clip-rule="evenodd" d="M1593.05 48.3414C1596.17 45.2172 1601.24 45.2172 1604.36 48.3414L1613.84 57.8216C1616.96 60.9458 1616.96 66.0111 1613.84 69.1353L1604.36 78.6155C1601.24 81.7397 1596.17 81.7397 1593.05 78.6155L1583.57 69.1353C1580.44 66.0111 1580.44 60.9458 1583.57 57.8216L1593.05 48.3414ZM1592.16 66.3123C1591.41 65.5557 1591.41 64.329 1592.16 63.5724L1598.68 57.0534C1599.44 56.2969 1600.67 56.2969 1601.42 57.0534C1602.18 57.81 1602.18 59.0367 1601.42 59.7933L1594.9 66.3123C1594.15 67.0689 1592.92 67.0689 1592.16 66.3123ZM1595.91 67.4472C1595.15 68.2038 1595.15 69.4305 1595.91 70.1871C1596.66 70.9436 1597.89 70.9436 1598.65 70.1871L1605.16 63.6681C1605.92 62.9115 1605.92 61.6848 1605.16 60.9282C1604.41 60.1716 1603.18 60.1716 1602.42 60.9282L1595.91 67.4472Z" fill="url(#paint14_linear_42_126)"/>
<path fill-rule="evenodd" clip-rule="evenodd" d="M1593.05 48.3414C1596.17 45.2172 1601.24 45.2172 1604.36 48.3414L1613.84 57.8216C1616.96 60.9458 1616.96 66.0111 1613.84 69.1353L1604.36 78.6155C1601.24 81.7397 1596.17 81.7397 1593.05 78.6155L1583.57 69.1353C1580.44 66.0111 1580.44 60.9458 1583.57 57.8216L1593.05 48.3414ZM1592.16 66.3123C1591.41 65.5557 1591.41 64.329 1592.16 63.5724L1598.68 57.0534C1599.44 56.2969 1600.67 56.2969 1601.42 57.0534C1602.18 57.81 1602.18 59.0367 1601.42 59.7933L1594.9 66.3123C1594.15 67.0689 1592.92 67.0689 1592.16 66.3123ZM1595.91 67.4472C1595.15 68.2038 1595.15 69.4305 1595.91 70.1871C1596.66 70.9436 1597.89 70.9436 1598.65 70.1871L1605.16 63.6681C1605.92 62.9115 1605.92 61.6848 1605.16 60.9282C1604.41 60.1716 1603.18 60.1716 1602.42 60.9282L1595.91 67.4472Z" fill="white"/>
<path fill-rule="evenodd" clip-rule="evenodd" d="M112.81 0.022987V0C48.6978 11.3332 0 67.3236 0 134.688C0 202.888 49.9136 259.43 115.203 269.777C118.993 268.792 121.791 265.348 121.791 261.25C121.791 256.384 125.736 252.44 130.601 252.44H146.708C151.574 252.44 155.518 256.384 155.518 261.25C155.518 264.888 157.724 268.011 160.871 269.355C224.925 257.974 273.563 202.011 273.563 134.688C273.563 67.8295 225.594 12.1748 162.195 0.262869C158.319 1.18688 155.437 4.67246 155.437 8.83118C155.437 13.6958 151.493 17.6394 146.629 17.6394H131.085C126.221 17.6394 122.277 13.6958 122.277 8.83118C122.277 3.96655 118.333 0.022987 113.469 0.022987L112.81 0.022987ZM75.955 161.05C68.9166 154.012 68.9166 142.601 75.9549 135.562L136.599 74.9185C143.637 67.8802 155.048 67.8802 162.087 74.9185C169.125 81.9568 169.125 93.3682 162.087 100.406L101.443 161.05C94.4046 168.089 82.9933 168.089 75.955 161.05ZM110.757 171.608C103.719 178.646 103.719 190.058 110.757 197.096C117.795 204.134 129.207 204.134 136.245 197.096L196.889 136.452C203.927 129.414 203.927 118.002 196.889 110.964C189.851 103.926 178.439 103.926 171.401 110.964L110.757 171.608Z" fill="url(#paint15_linear_42_126)"/>
<path fill-rule="evenodd" clip-rule="evenodd" d="M112.81 0.022987V0C48.6978 11.3332 0 67.3236 0 134.688C0 202.888 49.9136 259.43 115.203 269.777C118.993 268.792 121.791 265.348 121.791 261.25C121.791 256.384 125.736 252.44 130.601 252.44H146.708C151.574 252.44 155.518 256.384 155.518 261.25C155.518 264.888 157.724 268.011 160.871 269.355C224.925 257.974 273.563 202.011 273.563 134.688C273.563 67.8295 225.594 12.1748 162.195 0.262869C158.319 1.18688 155.437 4.67246 155.437 8.83118C155.437 13.6958 151.493 17.6394 146.629 17.6394H131.085C126.221 17.6394 122.277 13.6958 122.277 8.83118C122.277 3.96655 118.333 0.022987 113.469 0.022987L112.81 0.022987ZM75.955 161.05C68.9166 154.012 68.9166 142.601 75.9549 135.562L136.599 74.9185C143.637 67.8802 155.048 67.8802 162.087 74.9185C169.125 81.9568 169.125 93.3682 162.087 100.406L101.443 161.05C94.4046 168.089 82.9933 168.089 75.955 161.05ZM110.757 171.608C103.719 178.646 103.719 190.058 110.757 197.096C117.795 204.134 129.207 204.134 136.245 197.096L196.889 136.452C203.927 129.414 203.927 118.002 196.889 110.964C189.851 103.926 178.439 103.926 171.401 110.964L110.757 171.608Z" fill="white"/>
<defs>
<linearGradient id="paint0_linear_42_126" x1="1058" y1="28" x2="1058" y2="270" gradientUnits="userSpaceOnUse">
<stop stop-color="#E042FF"/>
<stop offset="1" stop-color="#2865FF"/>
</linearGradient>
<linearGradient id="paint1_linear_42_126" x1="1058" y1="28" x2="1058" y2="270" gradientUnits="userSpaceOnUse">
<stop stop-color="#E042FF"/>
<stop offset="1" stop-color="#2865FF"/>
</linearGradient>
<linearGradient id="paint2_linear_42_126" x1="1058" y1="28" x2="1058" y2="270" gradientUnits="userSpaceOnUse">
<stop stop-color="#E042FF"/>
<stop offset="1" stop-color="#2865FF"/>
</linearGradient>
<linearGradient id="paint3_linear_42_126" x1="1058" y1="28" x2="1058" y2="270" gradientUnits="userSpaceOnUse">
<stop stop-color="#E042FF"/>
<stop offset="1" stop-color="#2865FF"/>
</linearGradient>
<linearGradient id="paint4_linear_42_126" x1="1058" y1="28" x2="1058" y2="270" gradientUnits="userSpaceOnUse">
<stop stop-color="#E042FF"/>
<stop offset="1" stop-color="#2865FF"/>
</linearGradient>
<linearGradient id="paint5_linear_42_126" x1="1058" y1="28" x2="1058" y2="270" gradientUnits="userSpaceOnUse">
<stop stop-color="#E042FF"/>
<stop offset="1" stop-color="#2865FF"/>
</linearGradient>
<linearGradient id="paint6_linear_42_126" x1="1058" y1="28" x2="1058" y2="270" gradientUnits="userSpaceOnUse">
<stop stop-color="#E042FF"/>
<stop offset="1" stop-color="#2865FF"/>
</linearGradient>
<linearGradient id="paint7_linear_42_126" x1="1058" y1="28" x2="1058" y2="270" gradientUnits="userSpaceOnUse">
<stop stop-color="#E042FF"/>
<stop offset="1" stop-color="#2865FF"/>
</linearGradient>
<linearGradient id="paint8_linear_42_126" x1="1058" y1="28" x2="1058" y2="270" gradientUnits="userSpaceOnUse">
<stop stop-color="#E042FF"/>
<stop offset="1" stop-color="#2865FF"/>
</linearGradient>
<linearGradient id="paint9_linear_42_126" x1="1058" y1="28" x2="1058" y2="270" gradientUnits="userSpaceOnUse">
<stop stop-color="#E042FF"/>
<stop offset="1" stop-color="#2865FF"/>
</linearGradient>
<linearGradient id="paint10_linear_42_126" x1="1058" y1="28" x2="1058" y2="270" gradientUnits="userSpaceOnUse">
<stop stop-color="#E042FF"/>
<stop offset="1" stop-color="#2865FF"/>
</linearGradient>
<linearGradient id="paint11_linear_42_126" x1="1058" y1="28" x2="1058" y2="270" gradientUnits="userSpaceOnUse">
<stop stop-color="#E042FF"/>
<stop offset="1" stop-color="#2865FF"/>
</linearGradient>
<linearGradient id="paint12_linear_42_126" x1="1058" y1="28" x2="1058" y2="270" gradientUnits="userSpaceOnUse">
<stop stop-color="#E042FF"/>
<stop offset="1" stop-color="#2865FF"/>
</linearGradient>
<linearGradient id="paint13_linear_42_126" x1="1058" y1="28" x2="1058" y2="270" gradientUnits="userSpaceOnUse">
<stop stop-color="#E042FF"/>
<stop offset="1" stop-color="#2865FF"/>
</linearGradient>
<linearGradient id="paint14_linear_42_126" x1="1598.7" y1="48.5862" x2="1598.7" y2="78.3963" gradientUnits="userSpaceOnUse">
<stop stop-color="#E042FF"/>
<stop offset="1" stop-color="#2865FF"/>
</linearGradient>
<linearGradient id="paint15_linear_42_126" x1="136.782" y1="-2.04896" x2="136.782" y2="271.711" gradientUnits="userSpaceOnUse">
<stop stop-color="#E042FF"/>
<stop offset="1" stop-color="#2865FF"/>
</linearGradient>
</defs>
</svg>
